<svg width="260" height="64" viewBox="0 0 260 64" xmlns="http://www.w3.org/2000/svg">
  <defs>
    <linearGradient id="accent" x1="0%" y1="0%" x2="100%" y2="100%">
      <stop offset="0%" style="stop-color:#8c7ae6"/>
      <stop offset="100%" style="stop-color:#a78bfa"/>
    </linearGradient>
  </defs>
  <!-- Layout horizontal: icono y texto en la misma línea base -->
  <g>
    <!-- Gamepad: centrado con el eje óptico del texto -->
    <g transform="translate(0, 24) scale(0.5) translate(0, -32)">
      <path fill="url(#accent)" d="M52 18H12C5.4 18 0 23.4 0 30v4c0 6.6 5.4 12 12 12h4.7c2.3 0 4.4-1.3 5.5-3.3L26 36h12l3.8 6.7c1.1 2 3.2 3.3 5.5 3.3H52c6.6 0 12-5.4 12-12v-4c0-6.6-5.4-12-12-12zM20 34h-4v4h-4v-4H8v-4h4v-4h4v4h4v4zm18-2c-1.7 0-3-1.3-3-3s1.3-3 3-3 3 1.3 3 3-1.3 3-3 3zm10 6c-1.7 0-3-1.3-3-3s1.3-3 3-3 3 1.3 3 3-1.3 3-3 3zm0-10c-1.7 0-3-1.3-3-3s1.3-3 3-3 3 1.3 3 3-1.3 3-3 3zm6 4c-1.1 0-2-.9-2-2s.9-2 2-2 2 .9 2 2-.9 2-2 2z"/>
    </g>
    <!-- Texto: misma línea óptica que el icono -->
    <text x="40" y="34" font-family="system-ui, -apple-system, BlinkMacSystemFont, 'Segoe UI', Roboto, sans-serif" font-size="28" letter-spacing="0.5">
      <tspan fill="#2d3748" font-weight="600">Game</tspan>
      <tspan fill="#8c7ae6" font-weight="400">Stream</tspan>
    </text>
  </g>
</svg>
